<svg xmlns="http://www.w3.org/2000/svg" viewBox="0 0 512 512">
  <rect width="512" height="512" rx="128" fill="#e62b1e"/>
  <path fill="white" d="M345.2 144.3c-23.7-23.7-62.3-23.7-86 0l-37.1 37.1c-5.1 5.1-5.1 13.3 0 18.4s13.3 5.1 18.4 0l37.1-37.1c13.6-13.6 35.5-13.6 49.1 0 13.6 13.6 13.6 35.5 0 49.1l-69.6 69.6c-13.6 13.6-35.5 13.6-49.1 0-5.1-5.1-13.3-5.1-18.4 0s-5.1 13.3 0 18.4c23.7 23.7 62.3 23.7 86 0l69.6-69.6c23.7-23.7 23.7-62.2 0-85.9zM166.8 367.7c23.7 23.7 62.3 23.7 86 0l37.1-37.1c5.1-5.1 5.1-13.3 0-18.4s-13.3-5.1-18.4 0l-37.1 37.1c-13.6 13.6-35.5 13.6-49.1 0-13.6-13.6-13.6-35.5 0-49.1l69.6-69.6c13.6-13.6 35.5-13.6 49.1 0 5.1 5.1 13.3 5.1 18.4 0s5.1-13.3 0-18.4c-23.7-23.7-62.3-23.7-86 0l-69.6 69.6c-23.7 23.7-23.7 62.2 0 85.9z"/>
</svg>