<svg version="1.1" xmlns="http://www.w3.org/2000/svg" width="250" height="250" viewBox="386 334 250 225">
  <path fill="#000000" d="M632.0,521.7 C617.4,563.8 564.8,570.5 537.8,542.6 C530.1,534.6 521.7,527.1 513.9,519.2 C510.9,516.1 509.1,516.5 506.3,519.4 C498.1,527.9 489.8,536.4 481.2,544.5 C464.6,559.9 444.9,563.1 424.1,556.3 C403.5,549.5 391.7,534.3 387.6,513.1 C386.8,508.8 386.6,504.5 386.6,500.2 C386.7,463.2 386.8,426.2 386.6,389.2 C386.4,359.5 410.5,336.8 436.6,334.4 C455.0,332.8 470.4,338.3 483.5,350.8 C491.6,358.5 499.7,366.1 507.6,374.0 C510.3,376.7 512.0,376.5 514.6,373.9 C522.9,365.5 531.2,357.1 540.0,349.2 C556.1,334.6 575.2,330.6 595.8,336.8 C616.7,343.1 629.1,357.9 633.8,379.2 C634.8,383.5 635.0,388.1 635.0,392.6 C635.1,427.4 635.0,462.2 634.9,497.1 C634.8,505.2 634.7,513.4 632.0,521.7 M458.0,386.5 C456.1,384.6 454.2,382.7 452.3,380.8 C448.0,376.5 442.9,375.9 437.5,377.9 C432.1,380.0 430.0,384.5 430.0,390.2 C430.0,427.9 430.0,465.6 429.9,503.2 C429.9,509.1 432.0,513.9 437.6,516.0 C443.2,518.1 448.3,517.1 452.7,512.6 C460.6,504.7 468.6,497.0 476.6,489.1 C477.5,488.2 478.7,487.5 478.8,485.7 C478.3,485.2 477.8,484.5 477.2,484.0 C461.5,466.7 459.0,437.0 471.5,417.3 C473.5,414.2 475.0,412.9 478.2,416.2 C486.5,424.4 495.0,432.4 503.4,440.5 C505.0,442.0 506.5,443.5 506.2,446.0 C505.7,451.0 508.2,454.5 511.6,457.8 C530.6,476.0 549.5,494.3 568.5,512.6 C570.3,514.4 572.2,515.8 574.7,516.6 C583.8,519.4 591.6,513.0 591.6,502.6 C591.7,467.3 591.6,432.0 591.6,396.6 C591.6,394.0 591.8,391.3 591.5,388.6 C591.1,383.8 588.8,380.0 584.3,378.0 C579.9,376.2 575.1,375.9 571.5,379.2 C562.5,387.6 553.8,396.4 545.0,405.0 C543.2,406.7 543.2,408.3 545.0,410.1 C548.5,413.6 550.8,417.9 552.8,422.3 C561.1,441.0 559.8,459.2 550.1,477.0 C548.7,479.5 547.2,482.2 543.8,478.7 C535.4,470.4 526.8,462.2 518.3,454.0 C517.0,452.7 515.6,451.4 515.7,449.3 C515.9,443.3 512.6,439.1 508.5,435.1 C491.8,419.1 475.1,403.0 458.0,386.5 Z" />
</svg>